# Blender 3.1.0
# www.blender.org
o Icosphere
v 14.361863 19.893831 44.202019
v -37.600578 19.893816 27.318098
v -37.600578 19.893816 -27.318098
v 14.361863 19.893831 -44.202019
v 46.476788 19.893642 0.000000
v 0.000000 44.483337 0.000000
v 49.708843 11.171966 7.670647
v 49.419518 -0.000001 16.057125
v 49.419518 0.000001 -16.057125
v 49.708843 11.171966 -7.670647
v 8.065393 11.172058 49.646294
v 0.000000 -0.000001 51.962681
v 30.542917 0.000001 42.038681
v 22.656084 11.172081 44.905521
v -44.724159 11.172028 23.012066
v -49.419518 -0.000001 16.057125
v -30.542917 0.000001 42.038685
v -35.706600 11.172074 35.423759
v -35.706604 11.172075 -35.423759
v -30.542917 -0.000001 -42.038681
v -49.419518 0.000001 -16.057125
v -44.724159 11.172028 -23.012066
v 22.656084 11.172081 -44.905521
v 30.542917 -0.000001 -42.038685
v 0.000000 0.000001 -51.962681
v 8.065393 11.172058 -49.646294
v 43.183620 22.343920 12.411465
v 35.760170 23.386501 25.981182
v 25.148455 22.344055 37.234615
v 1.540136 22.344067 44.905331
v -13.659369 23.386564 42.038418
v -27.641075 22.344055 35.423611
v -42.231594 22.344007 15.341345
v -44.201946 23.386488 0.000000
v -42.231594 22.344007 -15.341345
v -27.641075 22.344055 -35.423607
v -13.659369 23.386564 -42.038418
v 1.540136 22.344067 -44.905331
v 25.148455 22.344055 -37.234615
v 35.760170 23.386501 -25.981182
v 43.183620 22.343920 -12.411464
v 4.032650 43.057632 12.411428
v 8.441627 37.839947 25.981096
v 12.098031 29.248650 37.234543
v 39.150852 29.248451 0.000000
v 27.318331 37.839825 0.000000
v 13.050271 43.057594 0.000000
v -10.557825 43.057629 7.670619
v -22.100908 37.839935 16.057060
v -31.673681 29.248634 23.012007
v -10.557825 43.057629 -7.670619
v -22.100908 37.839935 -16.057060
v -31.673681 29.248634 -23.012007
v 4.032650 43.057632 -12.411428
v 8.441627 37.839947 -25.981096
v 12.098031 29.248650 -37.234543
v 18.800116 39.787197 -13.659064
v 33.162251 32.188591 -13.659125
v 23.238188 32.188660 -27.318247
v -7.181100 39.787228 -22.100742
v -2.743088 32.188694 -35.759937
v -18.800291 32.188686 -30.542545
v -23.238226 39.787189 0.000000
v -34.857433 32.188625 -8.441704
v -34.857433 32.188625 8.441704
v -7.181102 39.787228 22.100742
v -18.800291 32.188686 30.542545
v -2.743088 32.188694 35.759937
v 18.800116 39.787197 13.659064
v 23.238192 32.188660 27.318247
v 33.162251 32.188591 13.659123
v 44.781658 12.295026 -22.100872
v 42.038815 0.000000 -30.542736
v 34.857635 12.295079 -35.760155
v -7.181166 12.295065 -49.419376
v -16.057325 -0.000022 -49.419456
v -23.238495 12.295073 -44.201992
v -49.219742 12.295012 -8.441734
v -51.962681 0.000028 0.000019
v -49.219727 12.295042 8.441748
v -23.238531 12.295053 44.201973
v -16.057362 -0.000035 49.419445
v -7.181204 12.295052 49.419376
v 34.857628 12.295023 35.760185
v 42.038780 -0.000085 30.542782
v 44.781654 12.294947 22.100935
v 16.057364 -0.000000 -49.419445
v -42.038769 -0.000000 -30.542797
v -42.038769 0.000000 30.542797
v 16.057364 0.000000 49.419445
v 51.962685 0.000000 0.000000
vn -0.3250 -0.6142 -0.7191
vn 0.5835 -0.6142 -0.5313
vn 0.6856 -0.6142 0.3908
vn -0.1598 -0.6142 0.7728
vn -0.7843 -0.6142 0.0868
vn -0.1083 -0.9910 0.0787
vn -0.3423 -0.9362 0.0800
vn -0.5855 -0.8064 0.0831
vn -0.2020 -0.9683 0.1468
vn -0.1819 -0.9362 0.3009
vn -0.4614 -0.8720 0.1634
vn -0.4428 -0.8369 0.3217
vn -0.2980 -0.8720 0.3883
vn -0.2600 -0.8064 0.5312
vn -0.7019 -0.6945 0.1583
vn -0.6833 -0.6546 0.3235
vn -0.5547 -0.7279 0.4030
vn -0.5188 -0.6546 0.5499
vn -0.3674 -0.6945 0.6187
vn -0.3250 -0.6142 0.7191
vn 0.0414 -0.9910 0.1273
vn -0.0297 -0.9362 0.3503
vn -0.1019 -0.8064 0.5825
vn 0.0772 -0.9683 0.2375
vn 0.2299 -0.9362 0.2660
vn 0.0128 -0.8720 0.4893
vn 0.1691 -0.8369 0.5205
vn 0.2772 -0.8720 0.4034
vn 0.4248 -0.8064 0.4114
vn -0.0664 -0.6945 0.7165
vn 0.0965 -0.6546 0.7498
vn 0.2119 -0.7279 0.6521
vn 0.3626 -0.6546 0.6634
vn 0.4748 -0.6945 0.5406
vn 0.5835 -0.6142 0.5313
vn 0.1338 -0.9910 -0.0000
vn 0.3240 -0.9362 0.1365
vn 0.5225 -0.8064 0.2769
vn 0.2497 -0.9683 -0.0000
vn 0.3240 -0.9362 -0.1365
vn 0.4693 -0.8720 0.1390
vn 0.5473 -0.8369 -0.0000
vn 0.4693 -0.8720 -0.1390
vn 0.5225 -0.8064 -0.2769
vn 0.6609 -0.6945 0.2845
vn 0.7430 -0.6546 0.1399
vn 0.6857 -0.7279 -0.0000
vn 0.7430 -0.6546 -0.1399
vn 0.6609 -0.6945 -0.2845
vn 0.6856 -0.6142 -0.3908
vn 0.0414 -0.9910 -0.1273
vn 0.2299 -0.9362 -0.2660
vn 0.4248 -0.8064 -0.4114
vn 0.0772 -0.9683 -0.2375
vn -0.0297 -0.9362 -0.3503
vn 0.2772 -0.8720 -0.4034
vn 0.1691 -0.8369 -0.5205
vn 0.0128 -0.8720 -0.4893
vn -0.1019 -0.8064 -0.5825
vn 0.4748 -0.6945 -0.5406
vn 0.3626 -0.6546 -0.6634
vn 0.2119 -0.7279 -0.6521
vn 0.0965 -0.6546 -0.7498
vn -0.0664 -0.6945 -0.7165
vn -0.1598 -0.6142 -0.7728
vn -0.1083 -0.9910 -0.0787
vn -0.1819 -0.9362 -0.3009
vn -0.2600 -0.8064 -0.5312
vn -0.2020 -0.9683 -0.1468
vn -0.3423 -0.9362 -0.0800
vn -0.2980 -0.8720 -0.3883
vn -0.4428 -0.8369 -0.3217
vn -0.4614 -0.8720 -0.1634
vn -0.5855 -0.8064 -0.0831
vn -0.3674 -0.6945 -0.6187
vn -0.5188 -0.6546 -0.5499
vn -0.5547 -0.7279 -0.4030
vn -0.6833 -0.6546 -0.3235
vn -0.7019 -0.6945 -0.1583
vn -0.7843 -0.6142 -0.0868
vn -0.8799 -0.4528 0.1441
vn -0.9314 -0.2028 0.3022
vn -0.8771 -0.3983 0.2685
vn -0.7770 -0.4966 0.3869
vn -0.8854 -0.1122 0.4511
vn -0.7896 -0.2177 0.5737
vn -0.7371 -0.4122 0.5355
vn -0.6081 -0.4966 0.6194
vn -0.7026 -0.1122 0.7026
vn -0.5753 -0.2028 0.7924
vn -0.5264 -0.3983 0.7512
vn -0.4089 -0.4528 0.7923
vn -0.1349 -0.4528 0.8814
vn -0.0004 -0.2028 0.9792
vn -0.0157 -0.3983 0.9171
vn 0.1279 -0.4966 0.8585
vn 0.1554 -0.1122 0.9814
vn 0.3016 -0.2177 0.9282
vn 0.2815 -0.4122 0.8665
vn 0.4012 -0.4966 0.7697
vn 0.4511 -0.1122 0.8854
vn 0.5759 -0.2028 0.7920
vn 0.5518 -0.3983 0.7327
vn 0.6272 -0.4528 0.6337
vn 0.7965 -0.4528 0.4006
vn 0.9312 -0.2028 0.3029
vn 0.8674 -0.3983 0.2983
vn 0.8560 -0.4966 0.1437
vn 0.9814 -0.1122 0.1554
vn 0.9760 -0.2177 -0.0000
vn 0.9111 -0.4122 -0.0000
vn 0.8560 -0.4966 -0.1437
vn 0.9814 -0.1122 -0.1554
vn 0.9312 -0.2028 -0.3029
vn 0.8674 -0.3983 -0.2983
vn 0.7965 -0.4528 -0.4006
vn 0.6272 -0.4528 -0.6337
vn 0.5759 -0.2028 -0.7920
vn 0.5518 -0.3983 -0.7327
vn 0.4012 -0.4966 -0.7697
vn 0.4511 -0.1122 -0.8854
vn 0.3016 -0.2177 -0.9282
vn 0.2815 -0.4122 -0.8665
vn 0.1279 -0.4966 -0.8585
vn 0.1554 -0.1122 -0.9814
vn -0.0004 -0.2028 -0.9792
vn -0.0157 -0.3983 -0.9171
vn -0.1349 -0.4528 -0.8814
vn -0.4089 -0.4528 -0.7923
vn -0.5753 -0.2028 -0.7924
vn -0.5264 -0.3983 -0.7512
vn -0.6081 -0.4966 -0.6194
vn -0.7026 -0.1122 -0.7026
vn -0.7896 -0.2177 -0.5737
vn -0.7371 -0.4122 -0.5355
vn -0.7770 -0.4966 -0.3869
vn -0.8854 -0.1122 -0.4511
vn -0.9314 -0.2028 -0.3022
vn -0.8771 -0.3983 -0.2685
vn -0.8799 -0.4528 -0.1441
vn -0.2898 -0.3475 0.8918
vn -0.4521 -0.0915 0.8873
vn -0.3029 -0.1978 0.9323
vn -0.1558 -0.0915 0.9835
vn 0.7586 -0.3475 0.5512
vn 0.7041 -0.0915 0.7041
vn 0.7930 -0.1978 0.5762
vn 0.8873 -0.0915 0.4521
vn 0.7586 -0.3475 -0.5512
vn 0.8873 -0.0915 -0.4521
vn 0.7930 -0.1978 -0.5762
vn 0.7041 -0.0915 -0.7041
vn -0.2898 -0.3475 -0.8918
vn -0.1558 -0.0915 -0.9835
vn -0.3029 -0.1978 -0.9323
vn -0.4521 -0.0915 -0.8873
vn -0.9377 -0.3475 -0.0000
vn -0.9835 -0.0915 -0.1558
vn -0.9803 -0.1978 -0.0000
vn -0.9835 -0.0915 0.1558
vt 0.181819 0.314921
vt 0.000000 0.314921
vt 0.909091 0.314921
vt 0.727273 0.314921
vt 0.545455 0.314921
vt 0.363637 0.314921
vt 0.454546 0.472382
vt 0.636364 0.472382
vt 0.818182 0.472382
vt 0.090910 0.472382
vt 0.272728 0.472382
vt 0.340910 0.275556
vt 0.318182 0.236191
vt 0.409091 0.236191
vt 0.386364 0.275556
vt 0.159092 0.275556
vt 0.136364 0.236191
vt 0.227273 0.236191
vt 0.204546 0.275556
vt 0.886364 0.275556
vt 0.863636 0.236191
vt 0.045455 0.236191
vt 0.954545 0.236191
vt 0.022727 0.275556
vt 0.931818 0.275556
vt 0.704546 0.275556
vt 0.681818 0.236191
vt 0.772727 0.236191
vt 0.750000 0.275556
vt 0.522728 0.275556
vt 0.500000 0.236191
vt 0.590909 0.236191
vt 0.568182 0.275556
vt 0.318182 0.314921
vt 0.272728 0.314921
vt 0.227273 0.314921
vt 0.136364 0.314921
vt 0.090909 0.314921
vt 0.045455 0.314921
vt 0.863636 0.314921
vt 0.818182 0.314921
vt 0.772727 0.314921
vt 0.681818 0.314921
vt 0.636364 0.314921
vt 0.590909 0.314921
vt 0.500000 0.314921
vt 0.454546 0.314921
vt 0.409091 0.314921
vt 0.113637 0.433017
vt 0.250001 0.433017
vt 0.136365 0.393651
vt 0.227273 0.393651
vt 0.159092 0.354286
vt 0.204546 0.354286
vt 0.386364 0.354286
vt 0.340910 0.354286
vt 0.409091 0.393651
vt 0.318182 0.393651
vt 0.431819 0.433017
vt 0.295455 0.433017
vt 0.840909 0.433017
vt 0.068182 0.433017
vt 0.863636 0.393651
vt 0.045455 0.393651
vt 0.886364 0.354286
vt 0.022727 0.354286
vt 0.659091 0.433017
vt 0.795455 0.433017
vt 0.681818 0.393651
vt 0.772727 0.393651
vt 0.704546 0.354286
vt 0.750000 0.354286
vt 0.477273 0.433017
vt 0.613637 0.433017
vt 0.500000 0.393651
vt 0.590909 0.393651
vt 0.522728 0.354286
vt 0.568182 0.354286
vt 0.454546 0.393651
vt 0.431819 0.354286
vt 0.477273 0.354286
vt 0.636364 0.393651
vt 0.613637 0.354286
vt 0.659091 0.354286
vt 0.818182 0.393651
vt 0.795455 0.354286
vt 0.840909 0.354286
vt 0.090910 0.393651
vt 0.068182 0.354286
vt 0.113637 0.354286
vt 0.272728 0.393651
vt 0.250001 0.354286
vt 0.295455 0.354286
vt 0.431819 0.275556
vt 0.454546 0.236191
vt 0.477273 0.275556
vt 0.613637 0.275556
vt 0.636364 0.236191
vt 0.659091 0.275556
vt 0.795455 0.275556
vt 0.818182 0.236191
vt 0.840909 0.275556
vt 0.068182 0.275556
vt 0.090910 0.236191
vt 0.113637 0.275556
vt 0.250001 0.275556
vt 0.272728 0.236191
vt 0.295455 0.275556
vt 0.545455 0.236191
vt 0.727273 0.236191
vt 0.909091 0.236191
vt 0.181819 0.236191
vt 0.363637 0.236191
s 0
f 1/1/1 44/54/1 29/36/1
f 2/2/2 50/66/2 32/39/2
f 3/4/3 53/72/3 35/42/3
f 4/5/4 56/78/4 38/45/4
f 5/6/5 45/55/5 41/48/5
f 47/59/6 6/7/6 54/73/6
f 46/57/7 47/59/7 57/79/7
f 45/55/8 46/57/8 58/80/8
f 47/59/9 54/73/9 57/79/9
f 57/79/10 54/73/10 55/75/10
f 46/57/11 57/79/11 58/80/11
f 58/80/12 57/79/12 59/81/12
f 57/79/13 55/75/13 59/81/13
f 59/81/14 55/75/14 56/77/14
f 45/55/15 58/80/15 41/48/15
f 41/48/16 58/80/16 40/47/16
f 58/80/17 59/81/17 40/47/17
f 40/47/18 59/81/18 39/46/18
f 59/81/19 56/77/19 39/46/19
f 39/46/20 56/77/20 4/5/20
f 54/74/21 6/8/21 51/67/21
f 55/76/22 54/74/22 60/82/22
f 56/78/23 55/76/23 61/83/23
f 54/74/24 51/67/24 60/82/24
f 60/82/25 51/67/25 52/69/25
f 55/76/26 60/82/26 61/83/26
f 61/83/27 60/82/27 62/84/27
f 60/82/28 52/69/28 62/84/28
f 62/84/29 52/69/29 53/71/29
f 56/78/30 61/83/30 38/45/30
f 38/45/31 61/83/31 37/44/31
f 61/83/32 62/84/32 37/44/32
f 37/44/33 62/84/33 36/43/33
f 62/84/34 53/71/34 36/43/34
f 36/43/35 53/71/35 3/4/35
f 51/68/36 6/9/36 48/61/36
f 52/70/37 51/68/37 63/85/37
f 53/72/38 52/70/38 64/86/38
f 51/68/39 48/61/39 63/85/39
f 63/85/40 48/61/40 49/63/40
f 52/70/41 63/85/41 64/86/41
f 64/86/42 63/85/42 65/87/42
f 63/85/43 49/63/43 65/87/43
f 65/87/44 49/63/44 50/65/44
f 53/72/45 64/86/45 35/42/45
f 35/42/46 64/86/46 34/41/46
f 64/86/47 65/87/47 34/41/47
f 34/41/48 65/87/48 33/40/48
f 65/87/49 50/65/49 33/40/49
f 33/40/50 50/65/50 2/3/50
f 48/62/51 6/10/51 42/49/51
f 49/64/52 48/62/52 66/88/52
f 50/66/53 49/64/53 67/89/53
f 48/62/54 42/49/54 66/88/54
f 66/88/55 42/49/55 43/51/55
f 49/64/56 66/88/56 67/89/56
f 67/89/57 66/88/57 68/90/57
f 66/88/58 43/51/58 68/90/58
f 68/90/59 43/51/59 44/53/59
f 50/66/60 67/89/60 32/39/60
f 32/39/61 67/89/61 31/38/61
f 67/89/62 68/90/62 31/38/62
f 31/38/63 68/90/63 30/37/63
f 68/90/64 44/53/64 30/37/64
f 30/37/65 44/53/65 1/1/65
f 42/50/66 6/11/66 47/60/66
f 43/52/67 42/50/67 69/91/67
f 44/54/68 43/52/68 70/92/68
f 42/50/69 47/60/69 69/91/69
f 69/91/70 47/60/70 46/58/70
f 43/52/71 69/91/71 70/92/71
f 70/92/72 69/91/72 71/93/72
f 69/91/73 46/58/73 71/93/73
f 71/93/74 46/58/74 45/56/74
f 44/54/75 70/92/75 29/36/75
f 29/36/76 70/92/76 28/35/76
f 70/92/77 71/93/77 28/35/77
f 28/35/78 71/93/78 27/34/78
f 71/93/79 45/56/79 27/34/79
f 27/34/80 45/56/80 5/6/80
f 10/15/81 5/6/81 41/48/81
f 9/14/82 10/15/82 72/94/82
f 10/15/83 41/48/83 72/94/83
f 72/94/84 41/48/84 40/47/84
f 9/14/85 72/94/85 73/95/85
f 73/95/86 72/94/86 74/96/86
f 72/94/87 40/47/87 74/96/87
f 74/96/88 40/47/88 39/46/88
f 73/95/89 74/96/89 24/31/89
f 24/31/90 74/96/90 23/30/90
f 74/96/91 39/46/91 23/30/91
f 23/30/92 39/46/92 4/5/92
f 26/33/93 4/5/93 38/45/93
f 25/32/94 26/33/94 75/97/94
f 26/33/95 38/45/95 75/97/95
f 75/97/96 38/45/96 37/44/96
f 25/32/97 75/97/97 76/98/97
f 76/98/98 75/97/98 77/99/98
f 75/97/99 37/44/99 77/99/99
f 77/99/100 37/44/100 36/43/100
f 76/98/101 77/99/101 20/27/101
f 20/27/102 77/99/102 19/26/102
f 77/99/103 36/43/103 19/26/103
f 19/26/104 36/43/104 3/4/104
f 22/29/105 3/4/105 35/42/105
f 21/28/106 22/29/106 78/100/106
f 22/29/107 35/42/107 78/100/107
f 78/100/108 35/42/108 34/41/108
f 21/28/109 78/100/109 79/101/109
f 79/101/110 78/100/110 80/102/110
f 78/100/111 34/41/111 80/102/111
f 80/102/112 34/41/112 33/40/112
f 79/101/113 80/102/113 16/21/113
f 16/21/114 80/102/114 15/20/114
f 80/102/115 33/40/115 15/20/115
f 15/20/116 33/40/116 2/3/116
f 18/24/117 2/2/117 32/39/117
f 17/22/118 18/24/118 81/103/118
f 18/24/119 32/39/119 81/103/119
f 81/103/120 32/39/120 31/38/120
f 17/22/121 81/103/121 82/104/121
f 82/104/122 81/103/122 83/105/122
f 81/103/123 31/38/123 83/105/123
f 83/105/124 31/38/124 30/37/124
f 82/104/125 83/105/125 12/17/125
f 12/17/126 83/105/126 11/16/126
f 83/105/127 30/37/127 11/16/127
f 11/16/128 30/37/128 1/1/128
f 14/19/129 1/1/129 29/36/129
f 13/18/130 14/19/130 84/106/130
f 14/19/131 29/36/131 84/106/131
f 84/106/132 29/36/132 28/35/132
f 13/18/133 84/106/133 85/107/133
f 85/107/134 84/106/134 86/108/134
f 84/106/135 28/35/135 86/108/135
f 86/108/136 28/35/136 27/34/136
f 85/107/137 86/108/137 8/13/137
f 8/13/138 86/108/138 7/12/138
f 86/108/139 27/34/139 7/12/139
f 7/12/140 27/34/140 5/6/140
f 23/30/141 4/5/141 26/33/141
f 24/31/142 23/30/142 87/109/142
f 23/30/143 26/33/143 87/109/143
f 87/109/144 26/33/144 25/32/144
f 19/26/145 3/4/145 22/29/145
f 20/27/146 19/26/146 88/110/146
f 19/26/147 22/29/147 88/110/147
f 88/110/148 22/29/148 21/28/148
f 15/20/149 2/3/149 18/25/149
f 16/21/150 15/20/150 89/111/150
f 15/20/151 18/25/151 89/111/151
f 89/111/152 18/25/152 17/23/152
f 11/16/153 1/1/153 14/19/153
f 12/17/154 11/16/154 90/112/154
f 11/16/155 14/19/155 90/112/155
f 90/112/156 14/19/156 13/18/156
f 7/12/157 5/6/157 10/15/157
f 8/13/158 7/12/158 91/113/158
f 7/12/159 10/15/159 91/113/159
f 91/113/160 10/15/160 9/14/160
